<svg version="1.1" id="Layer_1" xmlns="http://www.w3.org/2000/svg" xmlns:xlink="http://www.w3.org/1999/xlink" x="0px" y="0px"
	 width="100%" viewBox="0 0 678 1080" enable-background="new 0 0 678 1080" xml:space="preserve">
<path fill="#FFFFFF" opacity="1.000000" stroke="none" 
	d="
M359.000000,1081.000000 
	C239.333344,1081.000000 120.166679,1081.000000 1.000016,1081.000000 
	C1.000011,721.000000 1.000011,361.000061 1.000005,1.000064 
	C226.999954,1.000043 452.999908,1.000043 678.999878,1.000021 
	C678.999939,360.999908 678.999939,720.999817 679.000000,1080.999878 
	C572.500000,1081.000000 466.000000,1081.000000 359.000000,1081.000000 
M381.500214,348.446472 
	C264.239410,348.446472 146.978577,348.446472 29.475330,348.446472 
	C29.475330,459.584717 29.475330,570.124390 29.475330,680.851501 
	C238.682739,680.851501 447.553284,680.851501 656.705078,680.851501 
	C656.705078,570.021362 656.705078,459.492096 656.705078,348.446655 
	C565.075134,348.446655 473.787689,348.446655 381.500214,348.446472 
M422.930145,701.186829 
	C426.769928,706.278748 431.311066,703.625916 436.102966,702.079956 
	C433.512756,699.186768 430.877319,696.183716 427.575897,694.918457 
	C418.924286,691.602661 409.919037,691.690247 401.160583,694.775513 
	C392.951569,697.667053 388.499390,703.661987 388.550781,710.948425 
	C388.603790,718.466003 393.313965,724.605957 401.679016,727.286743 
	C412.779297,730.844055 423.726959,729.786194 434.298370,725.103271 
	C435.493011,724.574036 436.764709,722.815430 436.882812,721.524658 
	C437.227356,717.759888 437.005188,713.943298 437.005188,709.866577 
	C429.287537,709.866577 422.042145,709.866577 414.540802,709.866577 
	C414.540802,711.851257 414.540802,713.571472 414.540802,715.783569 
	C418.446594,715.783569 422.039642,715.783569 425.632690,715.783569 
	C425.960846,716.182800 426.288971,716.581970 426.617126,716.981201 
	C425.572449,718.389709 424.689911,720.831726 423.454681,721.025513 
	C418.461609,721.808777 413.238007,722.741638 408.329346,722.031250 
	C402.274261,721.154785 399.497131,716.589478 399.562378,710.452148 
	C399.624268,704.630432 402.403137,700.632996 408.655762,699.776733 
	C413.062836,699.173157 417.718750,700.386902 422.930145,701.186829 
M212.204391,716.461792 
	C212.204391,708.874451 212.204391,701.287109 212.204391,693.545898 
	C208.413361,693.545898 205.325562,693.545898 201.680298,693.545898 
	C201.680298,698.039368 201.680298,702.274902 201.680298,706.811829 
	C194.728546,706.811829 188.333389,706.811829 181.175430,706.811829 
	C181.175430,702.277832 181.175430,697.936218 181.175430,693.603882 
	C177.336884,693.603882 174.265106,693.603882 171.202545,693.603882 
	C171.202545,705.451355 171.202545,716.954773 171.202545,728.372803 
	C174.717407,728.372803 177.785385,728.372803 181.456970,728.372803 
	C181.456970,723.292480 181.456970,718.561707 181.456970,713.676392 
	C188.442825,713.676392 194.807114,713.676392 201.730896,713.676392 
	C201.730896,718.812134 201.730896,723.554688 201.730896,728.507690 
	C205.397797,728.507690 208.497635,728.507690 212.204147,728.507690 
	C212.204147,724.667297 212.204147,721.055908 212.204391,716.461792 
M491.280609,695.057495 
	C491.260986,701.378113 491.321045,707.700317 491.200378,714.018982 
	C491.066620,721.026245 488.679535,723.079834 481.129486,722.977173 
	C473.816345,722.877747 471.211487,720.523010 471.131561,713.711670 
	C471.053986,707.101807 471.114746,700.490356 471.114746,693.588135 
	C467.340027,693.588135 464.144897,693.588135 460.664917,693.588135 
	C460.664917,701.392883 460.651855,708.844055 460.668945,716.295166 
	C460.683197,722.509583 464.045929,726.346802 469.759674,727.879150 
	C477.593353,729.979919 485.548248,730.086609 493.379089,727.672119 
	C498.551483,726.077332 501.451538,722.495911 501.585327,717.017944 
	C501.751831,710.202454 501.836792,703.380798 501.709961,696.566345 
	C501.689392,695.461304 500.425507,693.479431 499.674805,693.449585 
	C496.968201,693.341980 494.235321,693.895752 491.280609,695.057495 
M268.193604,721.803467 
	C272.931488,729.705322 274.048035,730.183960 283.188843,727.853210 
	C276.673126,716.727173 270.358002,705.655945 263.717163,694.783691 
	C261.788300,691.625732 252.152603,692.715088 250.225037,696.030518 
	C247.220322,701.198608 244.313675,706.423767 241.362442,711.622986 
	C238.283142,717.047913 235.200180,722.470642 231.792786,728.468201 
	C238.217255,728.864441 244.031311,730.429443 246.193146,722.674744 
	C246.434723,721.808167 248.185318,720.818542 249.241394,720.812500 
	C255.364227,720.777588 261.488647,721.020447 268.193604,721.803467 
M542.867310,728.771545 
	C552.119629,728.669861 551.107361,729.918457 550.802734,720.951599 
	C550.630798,715.889771 552.028809,712.118774 555.642395,708.617798 
	C560.321472,704.084412 564.554077,699.090149 569.552490,693.672668 
	C562.358154,692.751526 556.716614,692.324158 552.938049,698.802002 
	C551.234741,701.721924 548.473083,704.024536 545.793701,707.057617 
	C542.280396,703.007568 539.083862,699.460999 536.044617,695.784485 
	C532.163086,691.088928 527.299561,694.060486 522.655945,693.774292 
	C526.034973,698.288635 529.404419,702.591003 533.415405,706.175415 
	C538.773743,710.964050 541.417419,716.403687 540.422607,723.669434 
	C540.205261,725.257080 541.424561,727.041321 542.867310,728.771545 
M304.618286,699.384399 
	C306.204742,699.477539 307.791229,699.570618 309.905884,699.694763 
	C309.905884,709.665344 309.905884,719.063477 309.905884,728.373596 
	C320.166504,729.497803 320.160400,729.497803 320.145660,720.113586 
	C320.135040,713.364868 320.143555,706.616089 320.143555,699.226562 
	C325.660156,699.226562 330.378113,699.226562 335.008209,699.226562 
	C335.569214,693.276855 335.569275,693.252808 330.384460,693.241882 
	C321.889069,693.223999 313.393585,693.241211 304.898163,693.243042 
	C301.473053,693.243835 298.047943,693.243225 294.510254,693.243225 
	C294.510254,695.636475 294.510254,697.246704 294.510254,699.384216 
	C297.700958,699.384216 300.662415,699.384216 304.618286,699.384399 
M124.045998,708.527222 
	C124.045998,715.115234 124.045998,721.703308 124.045998,728.531494 
	C127.786629,728.531494 130.866806,728.531494 134.689331,728.531494 
	C134.689331,718.820862 134.689331,709.293091 134.689331,699.261047 
	C140.161362,699.261047 144.897949,699.261047 150.020126,699.261047 
	C149.901428,696.994690 149.811935,695.285889 149.723404,693.595337 
	C135.798355,693.595337 122.444252,693.595337 108.722038,693.595337 
	C108.816933,695.720093 108.894104,697.448120 108.992310,699.647095 
	C114.205925,699.647095 118.932991,699.647095 124.044746,699.647095 
	C124.044746,702.604797 124.044746,705.070923 124.045998,708.527222 
z"/>
<path fill="#282828" opacity="1.000000" stroke="none" 
	d="
M382.000244,348.446564 
	C473.787689,348.446655 565.075134,348.446655 656.705078,348.446655 
	C656.705078,459.492096 656.705078,570.021362 656.705078,680.851501 
	C447.553284,680.851501 238.682739,680.851501 29.475330,680.851501 
	C29.475330,570.124390 29.475330,459.584717 29.475330,348.446472 
	C146.978577,348.446472 264.239410,348.446472 382.000244,348.446564 
M38.770088,583.500000 
	C38.770088,612.601135 38.770088,641.702209 38.770088,670.908203 
	C241.961075,670.908203 444.584381,670.908203 647.120605,670.908203 
	C647.120605,566.492004 647.120605,462.564117 647.120605,358.375854 
	C444.348175,358.375854 241.842682,358.375854 38.770012,358.375854 
	C38.770012,433.297882 38.770012,507.898956 38.770088,583.500000 
z"/>
<path fill="#2A2929" opacity="1.000000" stroke="none" 
	d="
M422.596863,700.988037 
	C417.718750,700.386902 413.062836,699.173157 408.655762,699.776733 
	C402.403137,700.632996 399.624268,704.630432 399.562378,710.452148 
	C399.497131,716.589478 402.274261,721.154785 408.329346,722.031250 
	C413.238007,722.741638 418.461609,721.808777 423.454681,721.025513 
	C424.689911,720.831726 425.572449,718.389709 426.617126,716.981201 
	C426.288971,716.581970 425.960846,716.182800 425.632690,715.783569 
	C422.039642,715.783569 418.446594,715.783569 414.540802,715.783569 
	C414.540802,713.571472 414.540802,711.851257 414.540802,709.866577 
	C422.042145,709.866577 429.287537,709.866577 437.005188,709.866577 
	C437.005188,713.943298 437.227356,717.759888 436.882812,721.524658 
	C436.764709,722.815430 435.493011,724.574036 434.298370,725.103271 
	C423.726959,729.786194 412.779297,730.844055 401.679016,727.286743 
	C393.313965,724.605957 388.603790,718.466003 388.550781,710.948425 
	C388.499390,703.661987 392.951569,697.667053 401.160583,694.775513 
	C409.919037,691.690247 418.924286,691.602661 427.575897,694.918457 
	C430.877319,696.183716 433.512756,699.186768 436.102966,702.079956 
	C431.311066,703.625916 426.769928,706.278748 422.596863,700.988037 
z"/>
<path fill="#262626" opacity="1.000000" stroke="none" 
	d="
M212.204269,716.953125 
	C212.204147,721.055908 212.204147,724.667297 212.204147,728.507690 
	C208.497635,728.507690 205.397797,728.507690 201.730896,728.507690 
	C201.730896,723.554688 201.730896,718.812134 201.730896,713.676392 
	C194.807114,713.676392 188.442825,713.676392 181.456970,713.676392 
	C181.456970,718.561707 181.456970,723.292480 181.456970,728.372803 
	C177.785385,728.372803 174.717407,728.372803 171.202545,728.372803 
	C171.202545,716.954773 171.202545,705.451355 171.202545,693.603882 
	C174.265106,693.603882 177.336884,693.603882 181.175430,693.603882 
	C181.175430,697.936218 181.175430,702.277832 181.175430,706.811829 
	C188.333389,706.811829 194.728546,706.811829 201.680298,706.811829 
	C201.680298,702.274902 201.680298,698.039368 201.680298,693.545898 
	C205.325562,693.545898 208.413361,693.545898 212.204391,693.545898 
	C212.204391,701.287109 212.204391,708.874451 212.204269,716.953125 
z"/>
<path fill="#292929" opacity="1.000000" stroke="none" 
	d="
M491.396484,694.628601 
	C494.235321,693.895752 496.968201,693.341980 499.674805,693.449585 
	C500.425507,693.479431 501.689392,695.461304 501.709961,696.566345 
	C501.836792,703.380798 501.751831,710.202454 501.585327,717.017944 
	C501.451538,722.495911 498.551483,726.077332 493.379089,727.672119 
	C485.548248,730.086609 477.593353,729.979919 469.759674,727.879150 
	C464.045929,726.346802 460.683197,722.509583 460.668945,716.295166 
	C460.651855,708.844055 460.664917,701.392883 460.664917,693.588135 
	C464.144897,693.588135 467.340027,693.588135 471.114746,693.588135 
	C471.114746,700.490356 471.053986,707.101807 471.131561,713.711670 
	C471.211487,720.523010 473.816345,722.877747 481.129486,722.977173 
	C488.679535,723.079834 491.066620,721.026245 491.200378,714.018982 
	C491.321045,707.700317 491.260986,701.378113 491.396484,694.628601 
z"/>
<path fill="#292929" opacity="1.000000" stroke="none" 
	d="
M267.903076,721.486389 
	C261.488647,721.020447 255.364227,720.777588 249.241394,720.812500 
	C248.185318,720.818542 246.434723,721.808167 246.193146,722.674744 
	C244.031311,730.429443 238.217255,728.864441 231.792786,728.468201 
	C235.200180,722.470642 238.283142,717.047913 241.362442,711.622986 
	C244.313675,706.423767 247.220322,701.198608 250.225037,696.030518 
	C252.152603,692.715088 261.788300,691.625732 263.717163,694.783691 
	C270.358002,705.655945 276.673126,716.727173 283.188843,727.853210 
	C274.048035,730.183960 272.931488,729.705322 267.903076,721.486389 
M261.774811,709.694397 
	C260.441895,707.302612 259.108948,704.910889 257.214630,701.511780 
	C254.677002,706.275391 252.649277,710.081787 250.282684,714.524292 
	C255.274063,714.524292 259.300476,714.524292 263.942413,714.524292 
	C263.246429,712.938232 262.681549,711.651001 261.774811,709.694397 
z"/>
<path fill="#2B2B2B" opacity="1.000000" stroke="none" 
	d="
M542.424805,728.753296 
	C541.424561,727.041321 540.205261,725.257080 540.422607,723.669434 
	C541.417419,716.403687 538.773743,710.964050 533.415405,706.175415 
	C529.404419,702.591003 526.034973,698.288635 522.655945,693.774292 
	C527.299561,694.060486 532.163086,691.088928 536.044617,695.784485 
	C539.083862,699.460999 542.280396,703.007568 545.793701,707.057617 
	C548.473083,704.024536 551.234741,701.721924 552.938049,698.802002 
	C556.716614,692.324158 562.358154,692.751526 569.552490,693.672668 
	C564.554077,699.090149 560.321472,704.084412 555.642395,708.617798 
	C552.028809,712.118774 550.630798,715.889771 550.802734,720.951599 
	C551.107361,729.918457 552.119629,728.669861 542.424805,728.753296 
z"/>
<path fill="#2B2B2B" opacity="1.000000" stroke="none" 
	d="
M304.121063,699.384277 
	C300.662415,699.384216 297.700958,699.384216 294.510254,699.384216 
	C294.510254,697.246704 294.510254,695.636475 294.510254,693.243225 
	C298.047943,693.243225 301.473053,693.243835 304.898163,693.243042 
	C313.393585,693.241211 321.889069,693.223999 330.384460,693.241882 
	C335.569275,693.252808 335.569214,693.276855 335.008209,699.226562 
	C330.378113,699.226562 325.660156,699.226562 320.143555,699.226562 
	C320.143555,706.616089 320.135040,713.364868 320.145660,720.113586 
	C320.160400,729.497803 320.166504,729.497803 309.905884,728.373596 
	C309.905884,719.063477 309.905884,709.665344 309.905884,699.694763 
	C307.791229,699.570618 306.204742,699.477539 304.121063,699.384277 
z"/>
<path fill="#2E2E2E" opacity="1.000000" stroke="none" 
	d="
M124.045372,708.032104 
	C124.044746,705.070923 124.044746,702.604797 124.044746,699.647095 
	C118.932991,699.647095 114.205925,699.647095 108.992310,699.647095 
	C108.894104,697.448120 108.816933,695.720093 108.722038,693.595337 
	C122.444252,693.595337 135.798355,693.595337 149.723404,693.595337 
	C149.811935,695.285889 149.901428,696.994690 150.020126,699.261047 
	C144.897949,699.261047 140.161362,699.261047 134.689331,699.261047 
	C134.689331,709.293091 134.689331,718.820862 134.689331,728.531494 
	C130.866806,728.531494 127.786629,728.531494 124.045998,728.531494 
	C124.045998,721.703308 124.045998,715.115234 124.045372,708.032104 
z"/>
<path fill="#FDFDFD" opacity="1.000000" stroke="none" 
	d="
M38.770050,583.000000 
	C38.770012,507.898956 38.770012,433.297882 38.770012,358.375854 
	C241.842682,358.375854 444.348175,358.375854 647.120605,358.375854 
	C647.120605,462.564117 647.120605,566.492004 647.120605,670.908203 
	C444.584381,670.908203 241.961075,670.908203 38.770088,670.908203 
	C38.770088,641.702209 38.770088,612.601135 38.770050,583.000000 
M333.500000,412.998413 
	C250.075760,412.998413 166.651505,412.998413 83.096451,412.998413 
	C83.096451,481.168610 83.096451,548.682190 83.096451,616.223145 
	C256.694855,616.223145 429.863068,616.223145 602.891602,616.223145 
	C602.891602,548.278320 602.891602,480.754608 602.891602,412.998413 
	C513.103394,412.998413 423.801697,412.998413 333.500000,412.998413 
z"/>
<path fill="#DDDCDC" opacity="1.000000" stroke="none" 
	d="
M261.945740,710.029053 
	C262.681549,711.651001 263.246429,712.938232 263.942413,714.524292 
	C259.300476,714.524292 255.274063,714.524292 250.282684,714.524292 
	C252.649277,710.081787 254.677002,706.275391 257.214630,701.511780 
	C259.108948,704.910889 260.441895,707.302612 261.945740,710.029053 
z"/>
<path fill="#1D1B1C" opacity="1.000000" stroke="none" 
	d="
M334.000000,412.998413 
	C423.801697,412.998413 513.103394,412.998413 602.891602,412.998413 
	C602.891602,480.754608 602.891602,548.278320 602.891602,616.223145 
	C429.863068,616.223145 256.694855,616.223145 83.096451,616.223145 
	C83.096451,548.682190 83.096451,481.168610 83.096451,412.998413 
	C166.651505,412.998413 250.075760,412.998413 334.000000,412.998413 
M210.494614,550.982483 
	C214.322189,550.891907 218.248657,551.309937 221.953705,550.589355 
	C227.256561,549.558044 232.804916,548.467834 237.505096,545.991821 
	C243.435715,542.867493 246.433762,537.097717 245.968048,530.144714 
	C245.514420,523.372070 241.070694,519.509094 235.411209,516.722290 
	C234.109039,516.081055 232.766190,515.522461 231.068710,514.757629 
	C232.132645,513.999329 232.781631,513.508911 233.457657,513.059143 
	C245.129135,505.293762 244.487167,492.657166 231.993225,486.335907 
	C229.656357,485.153564 226.966232,484.024292 224.425674,483.993835 
	C207.326294,483.788910 190.223297,483.887115 172.791016,483.887115 
	C172.791016,505.840271 172.791016,528.212280 172.791016,550.994873 
	C185.247559,550.994873 197.372116,550.994873 210.494614,550.982483 
M429.127777,488.634155 
	C429.039062,486.876648 428.950378,485.119171 428.859192,483.312073 
	C423.233704,483.312073 418.158905,483.312073 412.428741,483.312073 
	C412.428741,497.767242 412.428741,511.936676 412.428741,527.526123 
	C410.496826,525.361450 409.509705,524.362427 408.643188,523.268066 
	C398.930237,511.000946 389.274078,498.688477 379.485291,486.482330 
	C378.337311,485.050842 376.558929,483.349579 374.947906,483.209473 
	C370.024048,482.781219 365.039276,483.053894 359.804565,483.053894 
	C359.804565,505.869904 359.804565,528.239502 359.804565,550.729614 
	C365.263641,550.729614 370.348541,550.729614 376.116028,550.729614 
	C376.116028,536.608887 376.116028,522.772766 376.116028,508.936646 
	C378.299957,509.732361 379.352844,510.898590 380.331146,512.124329 
	C389.779938,523.963379 399.188171,535.835022 408.694519,547.627563 
	C409.774719,548.967529 411.322998,550.731262 412.761963,550.837280 
	C418.005615,551.223694 423.294983,550.989929 429.129669,550.989929 
	C429.129669,530.127930 429.129669,509.865417 429.127777,488.634155 
M504.838135,485.556946 
	C491.549713,480.758392 478.019836,480.520020 464.555878,484.278564 
	C449.519562,488.476074 439.748047,500.550262 439.093842,514.760681 
	C438.376343,530.345886 446.554291,543.219055 461.946533,548.595886 
	C481.214264,555.326599 500.031433,552.763306 518.025024,543.557800 
	C519.301758,542.904602 520.854858,541.220032 520.893311,539.972290 
	C521.148560,531.690430 521.025452,523.396912 521.025452,514.828003 
	C508.120544,514.828003 495.712952,514.828003 483.281494,514.828003 
	C483.281494,518.698242 483.281494,522.235657 483.281494,526.216187 
	C489.977997,526.216187 496.245392,526.216187 502.413025,526.216187 
	C503.979614,534.335388 503.593750,535.520264 496.608826,537.625488 
	C491.884674,539.049255 486.878632,540.215515 481.984344,540.272766 
	C465.865326,540.461426 457.277039,531.485474 457.500549,515.414612 
	C457.643921,505.109772 462.432861,498.264679 471.567719,495.307465 
	C483.438629,491.464508 494.937347,494.011597 500.875427,501.664459 
	C501.688904,502.712830 503.146362,504.083344 504.190308,503.991577 
	C509.260895,503.546051 514.292175,502.653198 519.722046,501.862732 
	C517.336731,493.727753 512.164978,489.144073 504.838135,485.556946 
M272.974487,502.493256 
	C272.974487,500.050079 272.974487,497.606873 272.974487,494.630798 
	C275.226440,494.630798 276.843628,494.630768 278.460815,494.630768 
	C289.284851,494.630798 300.108887,494.630981 310.932922,494.630798 
	C321.222626,494.630646 321.226288,494.630127 320.209717,484.199768 
	C320.181488,483.909943 319.872742,483.647461 319.712341,483.399323 
	C298.303497,483.399323 276.917328,483.399323 255.403717,483.399323 
	C255.403717,506.005798 255.403717,528.228699 255.403717,550.607666 
	C277.739258,550.607666 299.747528,550.607666 321.650940,550.607666 
	C321.650940,546.779846 321.650940,543.383423 321.650940,539.565186 
	C309.774506,539.565186 298.310120,539.567688 286.845703,539.564514 
	C272.501221,539.560608 272.601654,539.560669 272.896179,525.013306 
	C272.959717,521.876343 273.986511,521.025146 276.959473,521.063721 
	C287.282196,521.197937 297.607697,521.118286 307.932159,521.114990 
	C318.390320,521.111633 318.391083,521.108948 316.895233,510.563080 
	C316.873810,510.411987 316.738800,510.277008 316.334137,509.573730 
	C314.859863,509.573730 313.060272,509.573792 311.260681,509.573730 
	C300.603180,509.573334 289.936096,509.306732 279.292419,509.690430 
	C274.347717,509.868744 271.969360,508.707886 272.974487,502.493256 
M348.358826,509.500092 
	C348.358826,500.885345 348.358826,492.270630 348.358826,483.359009 
	C342.249603,483.359009 336.700562,483.359009 330.887360,483.359009 
	C330.887360,505.907288 330.887360,528.128662 330.887360,550.671753 
	C336.718658,550.671753 342.259369,550.671753 348.358917,550.671753 
	C348.358917,537.055115 348.358917,523.777649 348.358826,509.500092 
z"/>
<path fill="#F4F3F4" opacity="1.000000" stroke="none" 
	d="
M209.995651,550.988647 
	C197.372116,550.994873 185.247559,550.994873 172.791016,550.994873 
	C172.791016,528.212280 172.791016,505.840271 172.791016,483.887115 
	C190.223297,483.887115 207.326294,483.788910 224.425674,483.993835 
	C226.966232,484.024292 229.656357,485.153564 231.993225,486.335907 
	C244.487167,492.657166 245.129135,505.293762 233.457657,513.059143 
	C232.781631,513.508911 232.132645,513.999329 231.068710,514.757629 
	C232.766190,515.522461 234.109039,516.081055 235.411209,516.722290 
	C241.070694,519.509094 245.514420,523.372070 245.968048,530.144714 
	C246.433762,537.097717 243.435715,542.867493 237.505096,545.991821 
	C232.804916,548.467834 227.256561,549.558044 221.953705,550.589355 
	C218.248657,551.309937 214.322189,550.891907 209.995651,550.988647 
M192.094055,539.630371 
	C195.592926,539.640259 199.094986,539.749329 202.589981,539.637817 
	C208.572723,539.447021 214.598083,539.482849 220.514984,538.720520 
	C224.550079,538.200623 227.568222,535.614319 227.747864,531.031189 
	C227.926788,526.466431 225.205521,523.280396 221.177826,522.849609 
	C211.035339,521.764771 200.805405,521.497375 189.677887,520.847839 
	C190.274780,528.010315 190.749451,533.706116 192.094055,539.630371 
M200.557404,494.341400 
	C197.284317,494.341400 194.011230,494.341400 190.562958,494.341400 
	C190.562958,499.854950 190.562958,504.725281 190.562958,509.644043 
	C199.510376,509.644043 208.122009,509.976227 216.688690,509.499969 
	C220.796844,509.271576 224.539825,507.005249 224.463028,501.992249 
	C224.386154,496.973450 220.749298,495.169647 216.457123,494.818085 
	C211.502625,494.412292 206.509399,494.479340 200.557404,494.341400 
z"/>
<path fill="#F5F4F4" opacity="1.000000" stroke="none" 
	d="
M429.128723,489.118530 
	C429.129669,509.865417 429.129669,530.127930 429.129669,550.989929 
	C423.294983,550.989929 418.005615,551.223694 412.761963,550.837280 
	C411.322998,550.731262 409.774719,548.967529 408.694519,547.627563 
	C399.188171,535.835022 389.779938,523.963379 380.331146,512.124329 
	C379.352844,510.898590 378.299957,509.732361 376.116028,508.936646 
	C376.116028,522.772766 376.116028,536.608887 376.116028,550.729614 
	C370.348541,550.729614 365.263641,550.729614 359.804565,550.729614 
	C359.804565,528.239502 359.804565,505.869904 359.804565,483.053894 
	C365.039276,483.053894 370.024048,482.781219 374.947906,483.209473 
	C376.558929,483.349579 378.337311,485.050842 379.485291,486.482330 
	C389.274078,498.688477 398.930237,511.000946 408.643188,523.268066 
	C409.509705,524.362427 410.496826,525.361450 412.428741,527.526123 
	C412.428741,511.936676 412.428741,497.767242 412.428741,483.312073 
	C418.158905,483.312073 423.233704,483.312073 428.859192,483.312073 
	C428.950378,485.119171 429.039062,486.876648 429.128723,489.118530 
z"/>
<path fill="#F5F3F4" opacity="1.000000" stroke="none" 
	d="
M505.185425,485.708191 
	C512.164978,489.144073 517.336731,493.727753 519.722046,501.862732 
	C514.292175,502.653198 509.260895,503.546051 504.190308,503.991577 
	C503.146362,504.083344 501.688904,502.712830 500.875427,501.664459 
	C494.937347,494.011597 483.438629,491.464508 471.567719,495.307465 
	C462.432861,498.264679 457.643921,505.109772 457.500549,515.414612 
	C457.277039,531.485474 465.865326,540.461426 481.984344,540.272766 
	C486.878632,540.215515 491.884674,539.049255 496.608826,537.625488 
	C503.593750,535.520264 503.979614,534.335388 502.413025,526.216187 
	C496.245392,526.216187 489.977997,526.216187 483.281494,526.216187 
	C483.281494,522.235657 483.281494,518.698242 483.281494,514.828003 
	C495.712952,514.828003 508.120544,514.828003 521.025452,514.828003 
	C521.025452,523.396912 521.148560,531.690430 520.893311,539.972290 
	C520.854858,541.220032 519.301758,542.904602 518.025024,543.557800 
	C500.031433,552.763306 481.214264,555.326599 461.946533,548.595886 
	C446.554291,543.219055 438.376343,530.345886 439.093842,514.760681 
	C439.748047,500.550262 449.519562,488.476074 464.555878,484.278564 
	C478.019836,480.520020 491.549713,480.758392 505.185425,485.708191 
z"/>
<path fill="#F4F3F3" opacity="1.000000" stroke="none" 
	d="
M272.974670,502.975891 
	C271.969360,508.707886 274.347717,509.868744 279.292419,509.690430 
	C289.936096,509.306732 300.603180,509.573334 311.260681,509.573730 
	C313.060272,509.573792 314.859863,509.573730 316.334137,509.573730 
	C316.738800,510.277008 316.873810,510.411987 316.895233,510.563080 
	C318.391083,521.108948 318.390320,521.111633 307.932159,521.114990 
	C297.607697,521.118286 287.282196,521.197937 276.959473,521.063721 
	C273.986511,521.025146 272.959717,521.876343 272.896179,525.013306 
	C272.601654,539.560669 272.501221,539.560608 286.845703,539.564514 
	C298.310120,539.567688 309.774506,539.565186 321.650940,539.565186 
	C321.650940,543.383423 321.650940,546.779846 321.650940,550.607666 
	C299.747528,550.607666 277.739258,550.607666 255.403717,550.607666 
	C255.403717,528.228699 255.403717,506.005798 255.403717,483.399323 
	C276.917328,483.399323 298.303497,483.399323 319.712341,483.399323 
	C319.872742,483.647461 320.181488,483.909943 320.209717,484.199768 
	C321.226288,494.630127 321.222626,494.630646 310.932922,494.630798 
	C300.108887,494.630981 289.284851,494.630798 278.460815,494.630768 
	C276.843628,494.630768 275.226440,494.630798 272.974487,494.630798 
	C272.974487,497.606873 272.974487,500.050079 272.974670,502.975891 
z"/>
<path fill="#F9F7F8" opacity="1.000000" stroke="none" 
	d="
M348.358887,510.000122 
	C348.358917,523.777649 348.358917,537.055115 348.358917,550.671753 
	C342.259369,550.671753 336.718658,550.671753 330.887360,550.671753 
	C330.887360,528.128662 330.887360,505.907288 330.887360,483.359009 
	C336.700562,483.359009 342.249603,483.359009 348.358826,483.359009 
	C348.358826,492.270630 348.358826,500.885345 348.358887,510.000122 
z"/>
<path fill="#292728" opacity="1.000000" stroke="none" 
	d="
M191.659088,539.516113 
	C190.749451,533.706116 190.274780,528.010315 189.677887,520.847839 
	C200.805405,521.497375 211.035339,521.764771 221.177826,522.849609 
	C225.205521,523.280396 227.926788,526.466431 227.747864,531.031189 
	C227.568222,535.614319 224.550079,538.200623 220.514984,538.720520 
	C214.598083,539.482849 208.572723,539.447021 202.589981,539.637817 
	C199.094986,539.749329 195.592926,539.640259 191.659088,539.516113 
z"/>
<path fill="#292728" opacity="1.000000" stroke="none" 
	d="
M201.045197,494.341248 
	C206.509399,494.479340 211.502625,494.412292 216.457123,494.818085 
	C220.749298,495.169647 224.386154,496.973450 224.463028,501.992249 
	C224.539825,507.005249 220.796844,509.271576 216.688690,509.499969 
	C208.122009,509.976227 199.510376,509.644043 190.562958,509.644043 
	C190.562958,504.725281 190.562958,499.854950 190.562958,494.341400 
	C194.011230,494.341400 197.284317,494.341400 201.045197,494.341248 
z"/>
</svg>