<svg version="1.1" id="Layer_1" xmlns="http://www.w3.org/2000/svg" xmlns:xlink="http://www.w3.org/1999/xlink" x="0px" y="0px"
	 width="100%" viewBox="0 0 640 1024" enable-background="new 0 0 640 1024" xml:space="preserve">
<path fill="#000000" opacity="1.000000" stroke="none" 
	d="
M1.000000,522.454102 
	C11.098166,517.563843 20.232187,511.396393 29.718107,505.876953 
	C127.350777,449.068634 224.930984,392.170135 322.538971,335.319427 
	C373.069092,305.888702 423.650360,276.545654 474.123871,247.018280 
	C478.231232,244.615448 480.117828,245.554550 482.309937,249.346390 
	C510.992981,298.961304 539.786926,348.512085 568.553894,398.078461 
	C587.285461,430.353607 606.008667,462.633575 624.759644,494.897400 
	C628.159119,500.746674 628.178040,500.756378 622.553772,504.031403 
	C537.179810,553.743774 451.823181,603.485962 366.436829,653.177063 
	C294.729614,694.907654 222.965378,736.540405 151.318878,778.374817 
	C146.760635,781.036377 145.022430,779.446106 142.846588,775.678894 
	C119.515831,735.284546 96.069344,694.957092 72.674164,654.599915 
	C49.362865,614.387451 26.074776,574.161560 2.765461,533.947937 
	C2.437299,533.381836 1.965076,532.899170 1.280037,532.188782 
	C1.000000,528.969421 1.000000,525.938782 1.000000,522.454102 
M262.989777,701.449646 
	C321.860138,667.149841 380.718231,632.828979 439.604492,598.556519 
	C495.178375,566.211975 550.806519,533.960388 606.345764,501.556549 
	C614.662903,496.703979 615.211548,498.648956 609.659302,489.068848 
	C566.390503,414.411194 523.039917,339.800964 479.700165,265.184448 
	C475.551361,258.041595 475.479279,258.022736 468.346008,262.174957 
	C397.518799,303.402679 326.712250,344.665955 255.877457,385.880707 
	C176.977692,431.788025 98.057304,477.659973 19.137655,523.533142 
	C10.841915,528.355103 10.793696,528.324585 15.438116,536.319580 
	C59.199108,611.650574 102.994659,686.961548 146.661621,762.346985 
	C148.978088,766.346069 150.947723,766.747009 154.840286,764.464233 
	C190.619797,743.481934 226.496017,722.664612 262.989777,701.449646 
z"/>
<path fill="#000000" opacity="1.000000" stroke="none" 
	d="
M469.569946,620.623413 
	C475.516754,621.979797 479.160889,630.871277 475.826721,635.143616 
	C469.333435,643.464050 461.028992,648.949097 450.523956,650.777527 
	C443.970062,651.918274 438.681671,649.626099 434.844910,644.290161 
	C431.037628,638.995178 431.073578,633.270020 434.319550,627.830994 
	C439.801514,618.645203 448.495605,613.986206 458.682831,612.038391 
	C462.153534,611.374756 465.633087,612.197388 468.241882,615.789856 
	C465.049896,618.871765 462.681122,622.228088 457.083130,621.404846 
	C448.414276,620.130005 440.441528,629.109314 443.305695,636.169189 
	C445.346405,641.199280 449.741943,643.351501 455.030029,641.909790 
	C460.351685,640.458862 464.384216,636.891541 465.620544,632.356079 
	C463.166443,631.583130 461.624268,633.512146 459.794403,634.323242 
	C457.861359,635.179993 456.174866,636.065918 454.704285,633.550720 
	C453.275085,631.106384 453.946533,629.548157 456.252930,628.247925 
	C460.604523,625.794739 464.911346,623.262085 469.569946,620.623413 
z"/>
<path fill="#000000" opacity="1.000000" stroke="none" 
	d="
M265.864380,722.160034 
	C270.100739,720.691101 270.650696,724.149170 271.689362,726.282471 
	C273.665497,730.341492 276.063446,731.377075 279.752655,728.458557 
	C280.269867,728.049377 280.901001,727.784973 281.476105,727.447998 
	C288.485931,723.339905 288.665955,723.241394 284.844879,716.236328 
	C282.658173,712.227417 285.123260,711.041260 287.819031,709.346497 
	C290.798187,707.473511 292.780762,707.499512 294.638153,710.918396 
	C298.375366,717.797485 302.265259,724.607971 306.428070,731.235840 
	C308.696655,734.847778 307.375916,736.403137 304.190918,738.190125 
	C300.960236,740.002686 298.553284,740.839417 296.654083,736.620789 
	C295.578094,734.230713 293.956635,732.086243 292.476868,729.660706 
	C288.083893,731.214600 284.635040,733.843872 280.923370,735.955261 
	C279.169800,736.952759 278.970978,738.541260 279.914368,740.263977 
	C280.634369,741.578796 281.257324,742.982239 282.177460,744.145325 
	C285.220825,747.992188 283.613007,750.037720 279.900299,752.271057 
	C275.902679,754.675903 274.415283,752.898926 272.672424,749.641418 
	C269.608459,743.914856 266.224182,738.359436 262.964844,732.737610 
	C259.175079,726.200989 259.170776,726.203491 265.864380,722.160034 
z"/>
<path fill="#000000" opacity="1.000000" stroke="none" 
	d="
M506.707489,587.306885 
	C503.390900,582.185486 507.989319,581.533997 510.451752,579.828796 
	C513.339966,577.828796 514.940247,579.466858 516.315979,581.996460 
	C519.098022,587.112061 522.093567,592.112549 524.828674,597.252319 
	C527.219788,601.745850 526.449829,605.951721 523.031799,609.666321 
	C517.670715,615.492615 510.961426,619.050293 503.331360,620.757080 
	C498.896637,621.749084 494.968414,620.302490 492.463470,616.390503 
	C489.055756,611.068665 485.905731,605.580811 482.685028,600.140564 
	C480.311249,596.130981 484.031708,595.405518 486.170959,593.928467 
	C488.378479,592.404236 490.552246,591.368530 492.344147,594.673157 
	C494.803131,599.208130 497.343933,603.705505 500.032318,608.107422 
	C502.751312,612.559448 505.729858,612.961853 511.037842,609.893433 
	C515.835449,607.120056 516.615295,604.788574 514.079834,600.182800 
	C511.752380,595.954956 509.286530,591.803345 506.707489,587.306885 
z"/>
<path fill="#000000" opacity="1.000000" stroke="none" 
	d="
M338.261353,688.646606 
	C346.459290,693.354858 354.336182,697.884094 362.227478,702.421631 
	C358.548615,708.217041 354.534698,709.533447 349.255920,706.802673 
	C347.218719,705.748962 345.560883,705.772400 343.671112,706.917969 
	C340.826965,708.642090 337.908417,710.243591 335.021759,711.897644 
	C333.176331,712.955139 332.143250,714.355896 332.011108,716.666199 
	C331.664856,722.718445 329.588684,724.755737 322.976990,726.088501 
	C321.556793,725.259155 321.812073,723.810852 321.797394,722.535278 
	C321.682648,712.549805 321.566467,702.563843 321.553131,692.577942 
	C321.547577,688.439209 329.262146,683.936707 333.166534,685.757263 
	C334.819641,686.528076 336.352661,687.556335 338.261353,688.646606 
M333.849182,704.356445 
	C335.386353,703.499207 337.220520,702.993103 337.931000,700.878662 
	C336.465790,699.081299 334.890442,697.580627 332.003082,697.775391 
	C331.589508,700.282593 329.652588,702.776367 333.849182,704.356445 
z"/>
<path fill="#000000" opacity="1.000000" stroke="none" 
	d="
M554.315430,562.226929 
	C555.596741,553.041138 557.804382,550.400574 565.261841,548.872437 
	C566.671448,549.855042 566.158142,551.247070 565.898071,552.486145 
	C565.215759,555.736145 564.631897,559.030518 563.621887,562.183167 
	C561.499573,568.807800 561.025085,575.023987 565.906616,580.853943 
	C568.673096,584.157959 565.860779,585.778076 563.300354,587.298889 
	C560.912720,588.716980 558.212952,590.481079 556.810974,586.643127 
	C553.963806,578.848999 547.517944,576.586365 540.431091,574.692810 
	C536.655334,573.684021 532.625427,573.085205 529.266785,570.759338 
	C531.925537,565.878052 537.259277,563.597961 541.892700,565.214294 
	C543.460693,565.761353 545.088806,566.161743 546.608459,566.817017 
	C550.999451,568.710388 553.659851,567.620117 554.315430,562.226929 
z"/>
<path fill="#000000" opacity="1.000000" stroke="none" 
	d="
M373.940369,679.012146 
	C373.340576,677.978027 372.934021,677.252136 372.505920,676.539185 
	C368.843262,670.439331 368.843475,670.442322 362.744263,674.023499 
	C361.884338,674.528442 361.004364,674.999329 360.131958,675.482910 
	C358.171112,676.569702 356.690735,676.166138 355.571381,674.164124 
	C354.510986,672.267578 354.540894,670.666626 356.544830,669.486816 
	C365.572968,664.171997 374.608612,658.869873 383.652283,653.581482 
	C385.669159,652.402100 387.079987,653.198181 388.210297,655.032410 
	C389.363892,656.904541 389.317413,658.461365 387.306183,659.679077 
	C387.164154,659.765137 387.028595,659.862793 386.895294,659.962158 
	C378.986572,665.863770 378.984192,665.865234 383.958099,674.469543 
	C385.705933,677.493225 387.331635,680.599060 389.257996,683.505127 
	C391.868591,687.443481 388.897858,688.693970 386.341095,690.360107 
	C383.768158,692.036743 381.632111,692.698608 379.856476,689.265625 
	C378.101257,685.872009 376.046814,682.633118 373.940369,679.012146 
z"/>
<path fill="#000000" opacity="1.000000" stroke="none" 
	d="
M233.862305,740.817993 
	C236.613403,739.209595 239.055420,737.792603 241.477325,736.341980 
	C243.371719,735.207214 244.910950,735.407593 246.114517,737.382019 
	C247.359329,739.424194 247.083908,740.902161 245.076157,742.464111 
	C242.460815,744.498840 237.381958,744.645569 237.693130,748.838318 
	C237.916458,751.846924 240.560410,754.687134 242.167908,757.578308 
	C243.620499,760.190918 244.982452,762.872131 246.654358,765.340149 
	C248.899506,768.654358 248.576904,770.668396 244.803940,772.792358 
	C241.005203,774.930908 238.990433,774.650330 237.056519,770.620178 
	C234.979279,766.291443 232.028931,762.382080 229.945938,758.055603 
	C227.787231,753.571899 225.185913,753.165894 221.480423,756.038452 
	C220.438553,756.846069 219.199631,757.396057 218.069443,758.093994 
	C216.204330,759.245667 214.734375,759.138977 213.490601,757.080444 
	C212.197754,754.940857 212.471786,753.355469 214.636139,752.088257 
	C220.942291,748.396179 227.242203,744.693481 233.862305,740.817993 
z"/>
<path fill="#000000" opacity="1.000000" stroke="none" 
	d="
M139.111176,674.856506 
	C115.890968,634.939148 92.902390,595.310913 69.798012,555.750305 
	C67.508049,551.829346 67.604332,549.773193 72.006241,547.219604 
	C151.838684,500.907410 231.551605,454.389282 311.305847,407.942261 
	C361.404236,378.766174 411.553864,349.677887 461.595215,320.404510 
	C465.717407,317.993103 467.662384,318.419189 470.091125,322.631592 
	C498.466370,371.845398 526.979004,420.980377 555.622375,470.038605 
	C557.988892,474.091736 557.344604,475.854736 553.415466,478.136780 
	C472.025909,525.407227 390.717285,572.817017 309.374603,620.168335 
	C260.713928,648.494751 211.997009,676.724731 163.391327,705.145081 
	C159.345169,707.510864 157.394958,706.855469 155.234558,702.901062 
	C150.124435,693.547485 144.642090,684.397156 139.111176,674.856506 
M171.819595,563.312256 
	C169.286041,565.163147 170.647095,567.171692 171.713013,569.018188 
	C179.956802,583.298950 188.288773,597.528870 196.494431,611.831360 
	C197.991989,614.441650 199.462570,614.845642 202.071411,613.269653 
	C212.905121,606.724915 223.848328,600.361755 234.721268,593.881531 
	C238.475525,591.644043 241.922119,588.969482 244.133514,585.110596 
	C247.120316,579.898376 248.085861,574.450317 244.788559,569.000000 
	C241.735413,563.953186 236.858231,562.864258 231.363373,563.155579 
	C229.683334,563.244568 227.775299,564.304810 226.069473,562.415710 
	C226.484589,561.384888 226.871094,560.319397 227.335205,559.288818 
	C232.072601,548.769226 225.917648,540.187744 214.413147,541.381409 
	C210.396881,541.798096 206.598190,543.106445 203.097336,545.120056 
	C192.847183,551.015747 182.631165,556.970703 171.819595,563.312256 
M339.103455,527.416077 
	C340.921387,531.447754 343.508636,530.992004 346.758820,529.041443 
	C350.007172,527.091919 352.168823,524.989380 349.937897,521.057007 
	C345.421509,513.096130 340.811920,505.187897 336.332977,497.206207 
	C335.436859,495.609283 333.557526,494.169922 334.670135,491.982819 
	C336.048309,491.245422 337.043854,492.019012 338.102478,492.430511 
	C349.578644,496.891357 361.271576,500.876892 372.452789,505.983154 
	C379.180725,509.055634 384.343140,508.055878 389.821198,503.879211 
	C392.080109,502.156921 392.867828,500.885071 391.298523,498.219238 
	C383.024231,484.163300 374.829285,470.059448 366.756042,455.887207 
	C364.874481,452.584167 362.864990,451.718048 359.595642,453.873535 
	C356.518402,455.902313 352.776550,457.380554 355.664062,462.260651 
	C360.324585,470.137299 364.883270,478.075165 369.396606,486.037262 
	C370.411316,487.827332 372.122253,489.434906 371.659607,491.856110 
	C369.616577,492.952911 368.051910,491.591309 366.439453,490.958435 
	C353.583954,485.912262 340.759186,480.787811 327.910065,475.725342 
	C324.848755,474.519226 317.172760,477.072144 314.587616,480.369537 
	C312.049103,483.607391 315.225037,485.980652 316.532715,488.307373 
	C323.788971,501.218658 331.302643,513.985229 339.103455,527.416077 
M444.172028,457.874023 
	C440.206360,465.230865 434.138000,470.249390 426.507355,473.371277 
	C417.380585,477.105225 409.199890,475.059265 403.082794,467.749939 
	C395.989502,459.274078 394.781830,450.315552 399.671448,442.443634 
	C404.628357,434.463379 417.400665,428.267578 424.892639,430.208923 
	C431.420837,431.900513 435.631378,429.998016 439.303986,423.624146 
	C436.721252,420.317719 432.964783,419.561310 429.126465,419.256226 
	C413.039459,417.977631 391.418671,431.880432 385.739197,447.062866 
	C379.018250,465.029449 392.094513,484.804382 411.262390,484.926086 
	C432.732117,485.062408 447.253967,473.051025 458.688293,456.257751 
	C459.608063,454.906952 459.633850,453.533325 458.748932,452.054779 
	C455.925659,447.337372 453.131439,442.600769 450.432404,437.811584 
	C449.055145,435.367737 447.459991,435.122375 445.122101,436.523529 
	C438.262726,440.634521 431.323608,444.612213 424.431671,448.669189 
	C422.336182,449.902740 421.166962,451.364746 422.757568,453.947113 
	C424.214844,456.312988 425.771851,457.407532 428.425110,455.762024 
	C430.264465,454.621277 432.184784,453.611816 434.057007,452.523193 
	C440.869110,448.562347 442.518402,449.308716 444.172028,457.874023 
M296.688629,558.124268 
	C300.414581,555.922852 304.149506,553.736389 307.862396,551.513123 
	C309.480194,550.544434 311.078766,549.561462 309.825684,547.203186 
	C308.708374,545.100403 307.282104,543.567017 304.700226,544.416443 
	C303.134491,544.931580 301.627655,545.699951 300.192291,546.524902 
	C291.534149,551.500977 282.850281,556.436462 274.292816,561.581543 
	C271.085815,563.509766 268.866974,563.496094 267.094238,559.865479 
	C265.782440,557.178833 264.313171,554.541809 262.645599,552.063354 
	C260.741241,549.233032 261.645660,547.717102 264.370239,546.171692 
	C273.054779,541.245850 281.617035,536.104797 290.251495,531.089905 
	C292.706635,529.664001 294.041901,528.317261 292.164978,525.199829 
	C290.303406,522.107849 288.494202,522.653503 286.055481,524.071777 
	C277.710419,528.924866 269.249451,533.583496 260.989746,538.576172 
	C257.697601,540.566162 255.511429,540.381653 253.796982,536.839172 
	C253.218567,535.644043 252.584274,534.441406 251.773163,533.399719 
	C248.705139,529.459473 250.012772,527.101929 254.092102,524.840210 
	C262.822906,519.999817 271.354340,514.797791 279.931732,509.683929 
	C282.221832,508.318573 284.839905,507.004028 282.661926,503.511719 
	C280.651825,500.288574 278.270782,501.301361 275.815338,502.723816 
	C262.999695,510.148010 250.229553,517.651917 237.358124,524.977905 
	C233.609253,527.111633 233.166962,529.454407 235.317764,533.078430 
	C243.387192,546.675354 251.394745,560.312012 259.180359,574.072449 
	C261.184357,577.614380 263.130676,577.752197 266.302765,575.866333 
	C276.174072,569.997559 286.139587,564.287231 296.688629,558.124268 
M328.232544,532.186768 
	C320.643585,519.072021 313.073608,505.946259 305.442169,492.856323 
	C304.462372,491.175659 303.654816,488.579224 301.533997,488.684509 
	C297.967316,488.861664 294.956696,491.022552 292.496948,493.508820 
	C290.269012,495.760681 292.450073,497.915436 293.526550,499.798523 
	C301.128235,513.096008 308.888916,526.302551 316.485199,539.602966 
	C318.283081,542.750916 319.909821,544.612976 323.871704,542.319946 
	C330.646393,538.398987 331.004608,538.085938 328.232544,532.186768 
z"/>
<path fill="#000000" opacity="1.000000" stroke="none" 
	d="
M207.620575,579.603149 
	C212.206268,577.218384 216.342087,574.704712 220.758636,572.865051 
	C225.901962,570.722595 229.732788,572.057739 232.001022,576.006104 
	C234.605988,580.540649 232.663834,584.215698 229.288254,586.983276 
	C223.115997,592.043823 215.833618,595.438171 209.009460,599.518738 
	C207.489685,600.427551 206.108673,600.055908 205.105286,598.627319 
	C204.345428,597.545471 203.664734,596.400635 203.030136,595.239380 
	C197.067902,584.329224 195.441711,586.677917 207.620575,579.603149 
z"/>
<path fill="#000000" opacity="1.000000" stroke="none" 
	d="
M202.208771,555.096313 
	C204.340454,554.068787 206.096954,553.082336 207.970764,552.436035 
	C211.530411,551.208130 214.567963,552.073303 216.694565,555.291687 
	C218.914230,558.651001 217.816437,561.615234 215.404297,564.354065 
	C213.385834,566.646057 210.720215,568.069946 208.191223,569.662659 
	C206.220352,570.903870 204.164352,572.009705 202.149551,573.181519 
	C193.128342,578.428040 190.180313,577.205200 186.834732,567.117676 
	C186.042099,564.727783 187.215164,563.711243 188.890900,562.743164 
	C193.214737,560.245117 197.553635,557.773193 202.208771,555.096313 
z"/>
</svg>